<svg width="122" height="55" viewBox="0 0 122 55" fill="none" xmlns="http://www.w3.org/2000/svg">
<g clip-path="url(#clip0_2_24)">
<path d="M16.3505 1.25714H0V55H16.3505V1.25714Z" fill="#0099FF"/>
<path d="M122 1.25714H105.649V55H122V1.25714Z" fill="#0099FF"/>
<path d="M105.732 1.25714L115.959 11.4799L90.0023 37.4L79.9405 27.0362L105.732 1.25714Z" fill="#0099FF"/>
<path d="M100.237 27.0362L90.0024 37.4L77.1106 24.44L71.6907 14.1467L74.4461 9.27143L80.8942 7.70192L87.3419 14.1467L100.237 27.0362Z" fill="#0099FF"/>
<path fill-rule="evenodd" clip-rule="evenodd" d="M52.8247 19.6315V17.6H7.86082V32.0571H36.3805L50.6143 21.3732C51.4136 20.7721 52.1506 20.1914 52.8247 19.6315Z" fill="#0099FF"/>
<path fill-rule="evenodd" clip-rule="evenodd" d="M38.6834 44.4026V55H72.4806L84.2492 43.2369H61.2242V42.9192L66.8302 38.6801C71.3851 35.2361 74.8986 32.2687 77.3706 29.7784C79.8427 27.288 81.5557 25.0185 82.5094 22.9697C83.4631 20.9032 83.9401 18.8279 83.9401 16.7437C83.9401 13.3703 82.9767 10.4295 81.0495 7.92148C79.1418 5.41345 76.4264 3.47063 72.9035 2.09297C69.3994 0.697658 65.2536 0 60.4651 0C55.8323 0 51.7934 0.741812 48.3478 2.22544C44.9026 3.70904 42.2359 5.82852 40.3477 8.5838C38.6432 11.0715 38.6598 13.991 38.6793 17.3425C38.6812 17.7031 38.6834 18.0687 38.6834 18.4393H52.8247C52.8247 16.9204 53.2436 15.631 53.8665 14.5713C54.4894 13.5116 55.365 12.7079 56.4942 12.1604C57.6425 11.6129 58.9662 11.3391 60.4651 11.3391C61.9637 11.3391 63.2875 11.6129 64.4361 12.1604C65.5844 12.6903 66.4799 13.4497 67.1223 14.4388C67.7839 15.4279 68.115 16.6201 68.115 18.0154C68.115 19.2871 67.8229 20.444 67.239 21.486C66.6746 22.5281 65.857 23.5437 64.7864 24.5328C63.7353 25.5042 62.47 26.5462 60.9906 27.659L38.6834 44.4026Z" fill="#0099FF"/>
</g>
<defs>
<clipPath id="clip0_2_24">
<rect width="122" height="55" fill="white"/>
</clipPath>
</defs>
</svg>
